# AST/ASF file generated using VICON BodyLanguage
# -----------------------------------------------
:version 1.10
:name VICON
:units
  mass 1.0
  length 0.45
  angle deg
:documentation
   .ast/.asf automatically generated from VICON data using
   VICON BodyBuilder and BodyLanguage model FoxedUp or BRILLIANT.MOD
:root
   order TX TY TZ RX RY RZ
   axis XYZ
   position 0 0 0  
   orientation 0 0 0 
:bonedata
  begin
     id 1 
     name lhipjoint
     direction 0.734343 -0.627749 0.258209 
     length 2.5437 
     axis 0 0 0  XYZ
  end
  begin
     id 2 
     name lfemur
     direction 0.34202 -0.939693 0  
     length 6.7391  
     axis 0 0 20  XYZ
    dof rx ry rz
    limits (-160.0 20.0)
           (-70.0 70.0)
           (-60.0 70.0)
  end
  begin
     id 3 
     name ltibia
     direction 0.34202 -0.939693 0   
     length 7.21536   
     axis 0 0 20   XYZ
    dof rx
    limits (-10.0 170.0)
  end
  begin
     id 4 
     name lfoot
     direction 0.0489572 -0.134509 0.989702   
     length 1.61313   
     axis -90 7.62852e-016 20   XYZ
    dof rx rz
    limits (-45.0 90.0)
           (-70.0 20.0)
  end
  begin
     id 5 
     name ltoes
     direction 1.53451e-011 -4.21692e-011 1   
     length 0.823104   
     axis -90 7.62852e-016 20   XYZ
    dof rx
    limits (-90.0 20.0)
  end
  begin
     id 6 
     name rhipjoint
     direction -0.746398 -0.615468 0.253157   
     length 2.59446  
     axis 0 0 0  XYZ 
  end
  begin
     id 7 
     name rfemur
     direction -0.34202 -0.939693 0   
     length 6.7075   
     axis 0 0 -20   XYZ
    dof rx ry rz
    limits (-160.0 20.0)
           (-70.0 70.0)
           (-70.0 60.0)
  end
  begin
     id 8 
     name rtibia
     direction -0.34202 -0.939693 0   
     length 7.27262   
     axis 0 0 -20   XYZ
    dof rx
    limits (-10.0 170.0)
 end
 begin
     id 9 
     name rfoot
     direction -0.0455203 -0.125066 0.991104   
     length 1.91095  
     axis -90 -7.62852e-016 -20   XYZ
    dof rx rz
    limits (-45.0 90.0)
           (-20.0 70.0)
  end
  begin
     id 10 
     name rtoes
     direction -1.53601e-011 -4.21913e-011 1   
     length 0.969037   
     axis -90 -7.62852e-016 -20   XYZ
    dof rx
    limits (-90.0 20.0)
  end
  begin
     id 11 
     name lowerback
     direction 0.0181546 0.999122 -0.0377542   
     length 1.99916   
     axis 0 0 0   XYZ
    dof rx ry rz
    limits (-20.0 45.0)
           (-30.0 30.0)
           (-30.0 30.0)
  end
  begin
     id 12 
     name upperback
     direction 0.0203486 0.99589 0.0882534   
     length 1.951   
     axis 0 0 0   XYZ
    dof rx ry rz
    limits (-20.0 45.0)
           (-30.0 30.0)
           (-30.0 30.0)
  end
  begin
     id 13 
     name thorax
     direction 0.0131685 0.994241 0.106355   
     length 1.97461   
     axis 0 0 0   XYZ
    dof rx ry rz
    limits (-20.0 45.0)
           (-30.0 30.0)
           (-30.0 30.0)
  end
  begin
     id 14 
     name lowerneck
     direction -0.0281395 0.999325 0.023617   
     length 1.7959   
     axis 0 0 0   XYZ
    dof rx ry rz
    limits (-20.0 45.0)
           (-30.0 30.0)
           (-30.0 30.0)
  end
  begin
     id 15 
     name upperneck
     direction 0.0288721 0.991984 -0.123019   
     length 1.79917   
     axis 0 0 0   XYZ
    dof rx ry rz
    limits (-20.0 45.0)
           (-30.0 30.0)
           (-30.0 30.0)
  end
  begin
     id 16
     name head
     direction 0.0133797 0.998944 -0.0439492  
     length 1.80902  
     axis 0 0 0   XYZ
    dof rx ry rz
    limits (-20.0 45.0)
           (-30.0 30.0)
           (-30.0 30.0)
  end
  begin
     id 17 
     name lclavicle
     direction 0.919195 0.377107 0.113449  
     length 3.17815  
     axis 0 0 0   XYZ
    dof ry rz
    limits (-20.0 10.0)
           (0.0 20.0)
  end
  begin
     id 18 
     name lhumerus
     direction 1 -4.48959e-011 2.13129e-027   
     length 4.84137   
     axis 180 -30 -90   XYZ
    dof rx ry rz
    limits (-60.0 90.0)
           (-90.0 90.0)
           (-90.0 90.0)
  end
  begin
     id 19
     name lradius
     direction 1 -4.48957e-011 -6.30627e-028   
     length 3.2452   
     axis 180 -30 -90   XYZ
    dof rx
    limits (-10.0 170.0)
  end
  begin
     id 20
     name lwrist
     direction 1 -4.4901e-011 9.13299e-027   
     length 1.6226   
     axis -6.84618e-015 90 90   XYZ
    dof ry
    limits (-180.0 0.0)
 end
  begin
     id 21 
     name lhand
     direction 1 -4.48816e-011 1.82293e-026   
     length 0.521221   
     axis -1.16502e-014 90 90   XYZ
    dof rx rz
    limits (-90.0 90.0)
           (-45.0 45.0)
  end
  begin
     id 22 
     name lfingers
     direction 1 -4.49108e-011 3.65687e-026   
     length 0.420221   
     axis -2.33008e-014 90 90   XYZ
    dof rx
    limits (0.0 90.0)
  end
  begin
     id 23
     name lthumb
     direction 0.707107 -6.34943e-011 0.707107   
     length 0.603356   
     axis -90 45 5.69224e-014   XYZ
    dof rx rz
    limits (-45.0 45.0)
           (-45.0 45.0)
  end
  begin
     id 24 
     name rclavicle
     direction -0.90847 0.38596 0.160368   
     length 3.12973  
     axis 0 0 0   XYZ 
    dof ry rz
    limits (-10.0 20.0)
           (-20.0 0.0)
  end
  begin
     id 25 
     name rhumerus
     direction -1 -4.48974e-011 4.47268e-028  
     length 4.72284   
     axis 180 30 90   XYZ
    dof rx ry rz
    limits (-90.0 60.0)
           (-90.0 90.0)
           (-90.0 90.0)
  end
  begin
     id 26 
     name rradius
     direction -1 -4.48969e-011 3.43203e-027   
     length 3.23459   
     axis 180 30 90   XYZ
    dof rx
    limits (-10.0 170.0)
  end
  begin
     id 27 
     name rwrist
     direction -1 -4.48969e-011 9.12911e-027   
     length 1.6173   
     axis -6.84618e-015 -90 -90   XYZ
    dof ry
    limits (-180.0 0.0)
  end
  begin
     id 28
     name rhand
     direction -1 -4.49194e-011 1.83006e-026   
     length 0.307416   
     axis -1.16502e-014 -90 -90   XYZ
    dof rx rz
    limits (-90.0 90.0)
           (-45.0 45.0)
  end
  begin
     id 29
     name rfingers
     direction -1 -4.48423e-011 3.63103e-026   
     length 0.247847   
     axis -2.33008e-014 -90 -90   XYZ
    dof rx
    limits (0.0 90.0)
  end
  begin
     id 30
     name rthumb
     direction -0.707107 -6.34802e-011 0.707107   
     length 0.35586   
     axis -90 -45 -5.69224e-014   XYZ
    dof rx rz
    limits (-45.0 45.0)
           (-45.0 45.0)
  end
:hierarchy
  begin
    root lhipjoint rhipjoint lowerback
    lhipjoint lfemur
    lfemur ltibia
    ltibia lfoot
    lfoot ltoes
    rhipjoint rfemur
    rfemur rtibia
    rtibia rfoot
    rfoot rtoes
    lowerback upperback
    upperback thorax
    thorax lowerneck lclavicle rclavicle
    lowerneck upperneck
    upperneck head
    lclavicle lhumerus
    lhumerus lradius
    lradius lwrist
    lwrist lhand lthumb
    lhand lfingers
    rclavicle rhumerus
    rhumerus rradius
    rradius rwrist
    rwrist rhand rthumb
    rhand rfingers
  end

#!OML:ASF H:\Terrain\Patient Classification 1\Animal1\Tuesday\Animal1.ASF
:FULLY-SPECIFIED
:DEGREES
1174
root 24.0896 17.5849 -3.80532 -165.12 9.74067 -172.632
lowerback -9.42474 0.0460812 2.13754
upperback -3.21206 0.101928 0.51384
thorax 1.94911 0.154348 -0.656361
lowerneck 0.374299 1.76111 -7.99912
upperneck 8.01463 2.34193 6.89659
head 2.35425 1.23335 3.7668
rclavicle -1.34677e-014 1.27222e-014
rhumerus -37.1026 2.55095 -89.3593
rradius 13.0353
rwrist -23.7793
rhand -1.82853 14.13
rfingers 7.12502
rthumb 23.8378 -14.4109
lclavicle -1.34677e-014 1.27222e-014
lhumerus -39.8997 30.3974 68.8603
lradius 6.72062
lwrist -38.6869
lhand 38.4752 39.9807
lfingers 7.12502
lthumb 61.1196 52.5294
rfemur -10.0603 12.4335 27.7792
rtibia 21.4188
rfoot -12.5078 -42.8418
rtoes 44.2202
lfemur -16.4245 -5.228 -20.7291
ltibia 21.5631
lfoot -23.3782 28.8577
ltoes 46.0142
1175
root 24.0873 17.5265 -3.89855 -165.009 9.78586 -172.579
lowerback -9.36483 -0.0189901 1.96051
upperback -3.32734 0.0434563 0.515542
thorax 1.7956 0.127395 -0.561785
lowerneck 0.600954 1.76606 -7.83924
upperneck 7.79626 2.32871 6.95844
head 2.24039 1.22976 3.74706
rclavicle 2.78299e-014 -1.19271e-014
rhumerus -37.1453 2.37971 -89.2553
rradius 12.9815
rwrist -23.5343
rhand -0.675066 13.2654
rfingers 7.12502
rthumb 24.9436 -15.1267
lclavicle 2.78299e-014 -1.19271e-014
lhumerus -40.1641 30.6375 68.5508
lradius 6.63965
lwrist -39.9903
lhand 38.701 40.0072
lfingers 7.12502
lthumb 61.3099 52.3346
rfemur -10.0447 14.2439 27.2754
rtibia 20.6681
rfoot -24.0192 -41.4532
rtoes 50.8993
lfemur -16.1955 -5.05688 -20.7891
ltibia 21.5939
lfoot -20.332 29.99
ltoes 39.7178
1176
root 24.0783 17.4604 -3.98777 -164.803 9.80069 -172.859
lowerback -9.50401 -0.167776 1.59935
upperback -3.38531 -0.116465 0.461075
thorax 1.81001 0.0512943 -0.432203
lowerneck 0.51293 1.82152 -7.65876
upperneck 7.62089 2.40287 6.86795
head 2.19272 1.2661 3.67795
rclavicle -1.48592e-014 -7.15625e-015
rhumerus -37.0953 3.31639 -89.8262
rradius 12.9108
rwrist -24.048
rhand -0.917403 12.8712
rfingers 7.12502
rthumb 24.7114 -15.5529
lclavicle -1.48592e-014 -7.15625e-015
lhumerus -40.1901 31.0139 68.2068
lradius 6.75709
lwrist -39.7823
lhand 39.6401 40.7496
lfingers 7.12502
lthumb 62.0962 52.1232
rfemur -10.6916 15.5433 26.4309
rtibia 20.4092
rfoot -27.1749 -41.7961
rtoes 51.0825
lfemur -15.8822 -4.96243 -21.1766
ltibia 21.2134
lfoot -18.3376 30.3065
ltoes 34.3516
1177
root 24.0671 17.417 -4.08011 -164.592 9.84517 -173.451
lowerback -9.75292 -0.358017 0.991005
upperback -3.42523 -0.308128 0.367637
thorax 1.90623 -0.0392482 -0.208125
lowerneck 0.434351 1.88043 -7.7536
upperneck 7.35283 2.47496 6.92398
head 2.11058 1.29555 3.71179
rclavicle -1.3418e-014 4.77083e-015
rhumerus -36.7854 4.38479 -90.3853
rradius 12.3998
rwrist -24.7494
rhand -1.20625 13.9212
rfingers 7.12502
rthumb 24.4345 -14.5405
lclavicle -1.3418e-014 4.77083e-015
lhumerus -40.4385 31.4002 67.7854
lradius 6.82052
lwrist -40.1432
lhand 39.9514 40.7031
lfingers 7.12502
lthumb 62.3549 51.748
rfemur -11.6606 17.0387 25.1405
rtibia 20.423
rfoot -28.2439 -43.0209
rtoes 49.9825
lfemur -15.4612 -5.1371 -21.8608
ltibia 20.6325
lfoot -17.1662 30.3814
ltoes 30.7294
1178
root 24.0556 17.3774 -4.17256 -164.484 9.93943 -174.158
lowerback -9.92277 -0.464842 0.356209
upperback -3.44184 -0.383477 0.184237
thorax 1.98594 -0.0738929 -0.049677
lowerneck 0.562641 1.89104 -7.89469
upperneck 6.87804 2.46549 7.13488
head 1.92744 1.2841 3.80003
rclavicle -2.3556e-014 3.97569e-015
rhumerus -36.4663 4.31882 -90.3768
rradius 12.2254
rwrist -24.1435
rhand -1.08145 13.52
rfingers 7.12502
rthumb 24.5541 -14.9255
lclavicle -2.3556e-014 3.97569e-015
lhumerus -40.5795 31.5668 67.4619
lradius 6.82232
lwrist -40.5602
lhand 39.6407 41.1468
lfingers 7.12502
lthumb 62.0966 52.5198
rfemur -12.6398 18.6238 23.6774
rtibia 20.7178
rfoot -32.0679 -42.399
rtoes 50.5804
lfemur -14.8208 -5.30272 -22.7225
ltibia 19.7841
lfoot -15.5134 30.6598
ltoes 26.1948
1179
root 24.0403 17.3294 -4.26179 -164.472 10.1017 -174.754
lowerback -9.90689 -0.541298 -0.124717
upperback -3.44474 -0.436496 0.0604327
thorax 1.97763 -0.0995896 0.0868987
lowerneck 0.564866 1.99182 -7.93525
upperneck 6.62484 2.59104 7.27188
head 1.83083 1.34521 3.85114
rclavicle 1.05853e-014 7.95139e-015
rhumerus -36.2069 3.73166 -89.9518
rradius 12.3375
rwrist -22.8168
rhand -0.794218 12.4855
rfingers 7.12502
rthumb 24.8294 -15.9224
lclavicle 1.05853e-014 7.95139e-015
lhumerus -40.841 31.7643 67.1
lradius 6.90264
lwrist -40.9592
lhand 39.7529 42.5141
lfingers 7.12502
lthumb 62.19 53.7694
rfemur -13.5886 19.8009 22.4169
rtibia 20.9914
rfoot -32.1792 -43.0774
rtoes 49.7843
lfemur -14.0179 -5.26542 -23.5524
ltibia 18.8256
lfoot -14.4548 30.748
ltoes 23.8427
1180
root 24.018 17.2966 -4.34774 -164.477 10.2772 -175.348
lowerback -9.77528 -0.633808 -0.572341
upperback -3.47195 -0.516913 0.0188682
thorax 1.88167 -0.138228 0.287378
lowerneck 0.409759 2.11853 -7.78709
upperneck 6.61993 2.77449 7.03079
head 1.84504 1.4346 3.74059
rclavicle 1.59028e-015 -3.18055e-015
rhumerus -36.0283 3.53941 -89.6542
rradius 12.2473
rwrist -22.3947
rhand -1.18774 13.2929
rfingers 7.12502
rthumb 24.4522 -15.1665
lclavicle 1.59028e-015 -3.18055e-015
lhumerus -41.3002 32.0474 66.725
lradius 7.00687
lwrist -41.7266
lhand 40.6807 43.9441
lfingers 7.12502
lthumb 62.957 54.1931
rfemur -14.4649 20.8972 21.1461
rtibia 20.9655
rfoot -32.0597 -43.7338
rtoes 49.0039
lfemur -13.3219 -5.43514 -24.3783
ltibia 18.0386
lfoot -14.7178 30.7053
ltoes 24.7637
1181
root 23.995 17.276 -4.43581 -164.434 10.363 -175.462
lowerback -9.63348 -0.582407 -0.378998
upperback -3.43666 -0.474678 0.0351113
thorax 1.83817 -0.120817 0.200776
lowerneck 0.253701 2.13834 -7.41887
upperneck 6.5415 2.81854 6.58763
head 1.85085 1.45362 3.51541
rclavicle 1.77415e-014 7.95139e-015
rhumerus -35.6898 3.40583 -89.646
rradius 11.8775
rwrist -22.6225
rhand -2.57408 14.5004
rfingers 7.12502
rthumb 23.1227 -14.132
lclavicle 1.77415e-014 7.95139e-015
lhumerus -41.3764 32.1617 66.5684
lradius 6.75477
lwrist -42.7213
lhand 41.4054 44.0564
lfingers 7.12502
lthumb 63.5495 53.4772
rfemur -15.1464 22.0717 20.4094
rtibia 20.7238
rfoot -34.7115 -42.4771
rtoes 50.0214
lfemur -12.7254 -5.67619 -24.7121
ltibia 17.4178
lfoot -14.7013 31.1031
ltoes 24.2371
1182
root 23.9744 17.2643 -4.53068 -164.538 10.3956 -175.414
lowerback -9.44449 -0.506492 0.0539723
upperback -3.27872 -0.433667 0.0680817
thorax 1.89373 -0.110095 -0.00371047
lowerneck 0.183222 2.14013 -7.15683
upperneck 6.31275 2.8242 6.37305
head 1.7918 1.45423 3.38673
rclavicle -1.635e-014 -1.66979e-014
rhumerus -35.2148 2.7999 -89.4359
rradius 11.5833
rwrist -22.4579
rhand -3.6384 14.9858
rfingers 7.12502
rthumb 22.1012 -13.7711
lclavicle -1.635e-014 -1.66979e-014
lhumerus -41.3946 32.2359 66.3646
lradius 6.59647
lwrist -43.6298
lhand 41.7988 43.9124
lfingers 7.12502
lthumb 63.8685 52.8673
rfemur -15.493 23.2343 19.9653
rtibia 20.3616
rfoot -38.252 -40.0951
rtoes 51.5712
lfemur -11.9783 -5.89907 -24.8953
ltibia 16.9107
lfoot -14.4399 31.6482
ltoes 23.7555
1183
root 23.9518 17.2619 -4.62147 -164.658 10.3099 -175.529
lowerback -9.2089 -0.564282 0.229791
upperback -3.17827 -0.542692 0.195652
thorax 1.86722 -0.170254 0.0183557
lowerneck 0.276452 2.20454 -7.1368
upperneck 5.97723 2.90135 6.34982
head 1.65931 1.4875 3.3658
rclavicle 9.74045e-015 7.15625e-015
rhumerus -35.0493 1.02088 -88.2318
rradius 11.6039
rwrist -20.9799
rhand -3.15529 15.8927
rfingers 7.12502
rthumb 22.5649 -12.8086
lclavicle 9.74045e-015 7.15625e-015
lhumerus -41.6995 32.4962 66.1275
lradius 6.61452
lwrist -44.5605
lhand 42.2088 43.595
lfingers 7.12502
lthumb 64.199 52.0515
rfemur -15.8108 24.1554 19.4436
rtibia 19.9147
rfoot -40.4902 -38.5375
rtoes 52.0714
lfemur -11.3699 -6.19483 -25.2052
ltibia 16.536
lfoot -13.3328 32.2918
ltoes 22.1113
